# xmcd
#
# Track frame offsets:
#	150
#	22406
#	44036
#	65132
#	83835
#	104628
#	122550
#	148685
#	162925
#	178462
#	197304
#	210536
#	229393
#	249207
#	262234
#
# Disc length: 3722 seconds
#
# Revision: 0
# Processed by: cddbd v1.4PL0 Copyright (c) Steve Scherf et al.
# Submitted via: audiograbber 1.80
#
DISCID=ea0e880f
DTITLE=Vários - Amigos Pra Valer [CD1)
DYEAR=1900
DGENRE=
TTITLE0=Chitãozinho and Xororó - Romaria
TTITLE1=Chitãozinho and Xororó - Luar do Sertão
TTITLE2=Zezé Di Camargo and Luciano - Saudade Bandida
TTITLE3=Leonardo - Um Sonhador
TTITLE4=Daniel - Te Amo Cada Vez Mais (To Love You More)
TTITLE5=Fábio Junior - Desculpe, Mas Eu Vou Chorar
TTITLE6=Gian and Giovani - Pot-pourri: 1, 2, 3
TTITLE7=Chitãozinho and Xororó - Saudade Da Minha Terra
TTITLE8=Chitãozinho and Xororó - Deixei De Ser Cowboy Por Ela
TTITLE9=Leonardo - Deu Medo
TTITLE10=Zezé Di Camargo - Fio de Cabelo
TTITLE11=Chitãozinho and Xororó - Canção Da Amizade
TTITLE12=Leandro and Leonardo - Eu Sou Desejo, Você É Paixão (Right Here Waiting)
TTITLE13=Chitãozinho and Xororó - O Menino Da Porteira
TTITLE14=Daniel - Unencounter (Canção Da América)
EXTD=By MASTER®
EXTT0=
EXTT1=
EXTT2=
EXTT3=
EXTT4=
EXTT5=
EXTT6=
EXTT7=
EXTT8=
EXTT9=
EXTT10=
EXTT11=
EXTT12=
EXTT13=
EXTT14=
PLAYORDER=
